<svg width="22" height="15" viewBox="0 0 22 15" fill="none" xmlns="http://www.w3.org/2000/svg">
    <path d="M2.0625 0C0.923828 0 0 0.809695 0 1.80769C0 2.37636 0.305078 2.91114 0.825 3.25385L10.175 9.4C10.6648 9.72011 11.3352 9.72011 11.825 9.4L21.175 3.25385C21.6949 2.91114 22 2.37636 22 1.80769C22 0.809695 21.0762 0 19.9375 0H2.0625ZM0 4.21795V12.0513C0 13.3807 1.2332 14.4615 2.75 14.4615H19.25C20.7668 14.4615 22 13.3807 22 12.0513V4.21795L12.65 10.3641C12.1743 10.6776 11.5952 10.8471 11 10.8471C10.4048 10.8471 9.82573 10.6776 9.35 10.3641L0 4.21795Z" fill="#3F80D0"/>
</svg>
